<svg viewBox="0 -22 512 511" xmlns="http://www.w3.org/2000/svg"><path d="m384 278.769531h-256c-8.144531 0-14.769531 6.625-14.769531 14.769531v78.769532c0 8.140625 6.625 14.769531 14.769531 14.769531h256c8.144531 0 14.769531-6.628906 14.769531-14.769531v-78.769532c0-8.144531-6.625-14.769531-14.769531-14.769531zm0 0"/><path d="m412.765625 138.347656c15.734375-16.746094 25.386719-39.265625 25.386719-64v-59.078125c0-5.972656-3.597656-11.359375-9.117188-13.644531-5.515625-2.285156-11.871094-1.023438-16.09375 3.203125-35.308594 35.304687-82.25 54.75-132.179687 54.75h-113.378907c-46.546874 0-85.234374 34.1875-92.339843 78.769531zm0 0"/><path d="m467.691406 197.652344v-15c0-5.175782-.898437-10.144532-2.539062-14.769532h-418.304688c-1.640625 4.625-2.539062 9.59375-2.539062 14.769532v15c-24.433594 0-44.308594 19.878906-44.308594 44.308594v181.921874c0 24.433594 19.875 44.308594 44.308594 44.308594h423.382812c24.433594 0 44.308594-19.875 44.308594-44.308594v-181.921874c0-24.429688-19.875-44.308594-44.308594-44.308594zm-39.382812 174.65625c0 24.429687-19.878906 44.304687-44.308594 44.304687h-256c-24.429688 0-44.308594-19.875-44.308594-44.304687v-78.769532c0-24.433593 19.878906-44.308593 44.308594-44.308593h256c24.429688 0 44.308594 19.875 44.308594 44.308593zm0 0"/></svg>