<svg id="Capa_1" enable-background="new 0 0 512 512" height="512" viewBox="0 0 512 512" width="512" xmlns="http://www.w3.org/2000/svg"><g><path d="m297.503 512v-104.938h-211.92v104.938h37.469v-67.469h136.982v67.469z"/><path d="m34.981 0h313.124v37.469h-313.124z"/><path d="m153.052 474.531h76.982v37.469h-76.982z"/><path d="m140.481 155.921v-15h15c71.705 0 133.94 41.304 164.174 101.367l26.049-174.82h-308.322l46.132 309.593h216.059l5.727-38.43c-92.454-9.47-164.819-87.797-164.819-182.71z"/><path d="m339.96 308.787c72.137-7.406 129.653-64.922 137.059-137.059-72.137 7.406-129.653 64.922-137.059 137.059z"/><path d="m171.288 171.728c7.406 72.137 64.922 129.652 137.059 137.059-7.407-72.137-64.922-129.653-137.059-137.059z"/></g></svg>